<svg width="20" height="21" viewBox="0 0 20 21" fill="none" xmlns="http://www.w3.org/2000/svg">
<g clip-path="url(#clip0_36_3399)">
<path d="M18.382 17.4293C16.6297 16.5692 15.625 14.7277 15.625 12.3746V11.0223C15.6257 10.7718 15.5508 10.527 15.4102 10.3198C15.2696 10.1125 15.0697 9.95248 14.8367 9.86056L12.5985 8.96525C12.4451 8.90387 12.3223 8.78427 12.2569 8.63261C12.1914 8.48095 12.1887 8.30955 12.2492 8.15587L13.993 3.72853C14.375 2.74884 13.9063 1.60978 12.9172 1.24259C12.4568 1.07137 11.9476 1.08767 11.4991 1.28796C11.0506 1.48826 10.6986 1.85657 10.5188 2.31369L8.76955 6.75587C8.73939 6.83248 8.6944 6.90238 8.63716 6.96155C8.57991 7.02072 8.51154 7.068 8.43597 7.10067C8.36039 7.13333 8.27911 7.15075 8.19679 7.15191C8.11447 7.15307 8.03273 7.13796 7.95627 7.10744L5.71173 6.209C5.48263 6.11626 5.23107 6.09393 4.98921 6.14486C4.74735 6.19579 4.52617 6.31768 4.35392 6.49494C2.70939 8.18712 1.87502 10.1645 1.87502 12.3746C1.87072 14.6327 2.74321 16.8043 4.30861 18.4317C4.36775 18.4931 4.43876 18.5419 4.51732 18.575C4.59588 18.6082 4.68036 18.6251 4.76564 18.6246H18.125C18.2844 18.6249 18.4378 18.5644 18.554 18.4553C18.6701 18.3462 18.7403 18.1969 18.75 18.0379C18.7556 17.9115 18.7236 17.7862 18.6581 17.6779C18.5926 17.5696 18.4966 17.4831 18.382 17.4293ZM8.99298 17.3746C8.06835 16.4875 7.41162 15.3584 7.09767 14.116C7.0598 13.9595 6.96446 13.823 6.83058 13.7336C6.6967 13.6441 6.53408 13.6083 6.37502 13.6332C6.2903 13.6485 6.20965 13.6811 6.13813 13.7291C6.06662 13.777 6.00577 13.8392 5.95942 13.9117C5.91306 13.9843 5.88219 14.0656 5.86874 14.1506C5.85529 14.2357 5.85956 14.3226 5.88127 14.4059C6.15421 15.4821 6.64213 16.4919 7.31564 17.3746H5.03439C3.80224 16.001 3.12209 14.2199 3.12502 12.3746C3.11731 11.3966 3.32342 10.4287 3.72892 9.53869L14.4945 13.8457C14.7289 15.2567 15.3188 16.4629 16.2047 17.3762L8.99298 17.3746Z" fill="#4C4D5F"/>
</g>
<defs>
<clipPath id="clip0_36_3399">
<rect width="20" height="20" fill="white" transform="translate(0 0.5)"/>
</clipPath>
</defs>
</svg>
