<svg width="25" height="24" viewBox="0 0 25 24" fill="none" xmlns="http://www.w3.org/2000/svg">
<g id="db">
<path id="Vector" d="M5.24951 12V18C5.24951 18 5.24951 21 12.2495 21C19.2495 21 19.2495 18 19.2495 18V12" stroke="#898E93" stroke-width="1.5"/>
<path id="Vector_2" d="M5.24951 6V12C5.24951 12 5.24951 15 12.2495 15C19.2495 15 19.2495 12 19.2495 12V6" stroke="#898E93" stroke-width="1.5"/>
<path id="Vector_3" d="M12.2495 3C19.2495 3 19.2495 6 19.2495 6C19.2495 6 19.2495 9 12.2495 9C5.24951 9 5.24951 6 5.24951 6C5.24951 6 5.24951 3 12.2495 3Z" stroke="#898E93" stroke-width="1.5"/>
</g>
</svg>
