<svg width="18" height="18" viewBox="0 0 18 18" fill="none" xmlns="http://www.w3.org/2000/svg">
<g id="DiscordLogo" clip-path="url(#clip0_70_2629)">
<path id="Vector" d="M17.4028 12.2617L15.3279 4.07805C15.2733 3.865 15.1577 3.6725 14.9954 3.52414C14.833 3.37577 14.6309 3.27798 14.4138 3.24274L11.8784 2.82649C11.5988 2.78153 11.3126 2.84214 11.0753 2.99653C10.838 3.15092 10.6666 3.38805 10.5944 3.6618L10.5797 3.72156C10.5701 3.75954 10.5686 3.79908 10.5752 3.83768C10.5818 3.87627 10.5964 3.91306 10.618 3.94569C10.6397 3.97832 10.6679 4.00608 10.7009 4.02717C10.7339 4.04827 10.7709 4.06224 10.8096 4.0682C11.3914 4.15359 11.9654 4.28574 12.5259 4.46336C12.6661 4.50564 12.7849 4.59965 12.8583 4.7263C12.9316 4.85296 12.9541 5.00279 12.9211 5.14539C12.9021 5.21971 12.8681 5.28935 12.8213 5.35006C12.7744 5.41076 12.7156 5.46123 12.6485 5.49837C12.5814 5.53551 12.5074 5.55854 12.431 5.56604C12.3547 5.57353 12.2777 5.56534 12.2046 5.54195C10.1246 4.90407 7.9016 4.90162 5.82023 5.53492C5.67937 5.58228 5.52569 5.57357 5.39109 5.51059C5.25649 5.44761 5.15132 5.33521 5.09742 5.19672C5.0718 5.12566 5.06076 5.05016 5.06495 4.97474C5.06914 4.89932 5.08848 4.82551 5.12182 4.75773C5.15515 4.68994 5.2018 4.62957 5.25897 4.5802C5.31615 4.53083 5.38268 4.49349 5.4546 4.47039C6.02217 4.28961 6.60344 4.15511 7.19273 4.0682C7.23143 4.06224 7.26846 4.04827 7.30144 4.02717C7.33443 4.00608 7.36265 3.97832 7.38429 3.94569C7.40594 3.91306 7.42053 3.87627 7.42713 3.83768C7.43374 3.79908 7.43221 3.75954 7.42265 3.72156L7.40789 3.6618C7.33571 3.38781 7.16407 3.15053 6.92644 2.99623C6.68881 2.84192 6.40223 2.78166 6.12257 2.82719L3.5857 3.24344C3.36869 3.27863 3.16666 3.37632 3.00431 3.52455C2.84197 3.67278 2.72636 3.86513 2.67164 4.07805L0.596714 12.2617C0.531655 12.519 0.55997 12.7909 0.676619 13.0293C0.793269 13.2676 0.990687 13.4568 1.23374 13.5632L5.94468 15.6522C6.08633 15.7152 6.23937 15.7485 6.39438 15.7502C6.54939 15.7518 6.7031 15.7218 6.84607 15.6618C6.98904 15.6019 7.11824 15.5134 7.22574 15.4017C7.33323 15.29 7.41676 15.1575 7.47117 15.0123L7.71656 14.3479C7.73118 14.3081 7.73661 14.2655 7.73246 14.2233C7.7283 14.1811 7.71465 14.1404 7.69254 14.1042C7.67042 14.068 7.64042 14.0373 7.60476 14.0144C7.56911 13.9914 7.52872 13.9769 7.48664 13.9717C6.80358 13.889 6.12967 13.7431 5.47359 13.5358C5.33403 13.4934 5.21573 13.3996 5.14253 13.2735C5.06934 13.1473 5.04668 12.9981 5.07914 12.8559C5.09794 12.7813 5.13183 12.7115 5.17869 12.6505C5.22555 12.5896 5.2844 12.539 5.3516 12.5017C5.41881 12.4644 5.49294 12.4413 5.56943 12.4337C5.64592 12.4262 5.72314 12.4344 5.79632 12.4579C7.88409 13.0973 10.1154 13.0973 12.2032 12.4579C12.2763 12.4345 12.3534 12.4264 12.4298 12.4339C12.5061 12.4414 12.5802 12.4645 12.6473 12.5017C12.7144 12.5389 12.7732 12.5895 12.82 12.6503C12.8669 12.7111 12.9008 12.7808 12.9197 12.8552C12.9525 12.9975 12.93 13.147 12.8568 13.2733C12.7836 13.3997 12.665 13.4935 12.5252 13.5358C11.8694 13.7431 11.1957 13.8891 10.5129 13.9717C10.4708 13.9769 10.4304 13.9914 10.3948 14.0144C10.3591 14.0373 10.3291 14.068 10.307 14.1042C10.2849 14.1404 10.2712 14.1811 10.2671 14.2233C10.2629 14.2655 10.2683 14.3081 10.283 14.3479L10.5284 15.0123C10.5829 15.1574 10.6664 15.2899 10.7739 15.4015C10.8814 15.5131 11.0106 15.6016 11.1536 15.6615C11.2965 15.7215 11.4502 15.7515 11.6052 15.7499C11.7602 15.7483 11.9132 15.7151 12.0548 15.6522L16.7658 13.5632C17.0088 13.4568 17.2063 13.2676 17.3229 13.0293C17.4396 12.7909 17.4679 12.519 17.4028 12.2617ZM6.46851 10.6874C6.30163 10.6874 6.1385 10.6379 5.99975 10.5452C5.86099 10.4525 5.75285 10.3207 5.68899 10.1666C5.62513 10.0124 5.60842 9.84274 5.64097 9.67907C5.67353 9.51539 5.75389 9.36505 5.87189 9.24705C5.98989 9.12905 6.14023 9.04869 6.3039 9.01614C6.46757 8.98358 6.63722 9.00029 6.7914 9.06415C6.94558 9.12801 7.07735 9.23616 7.17006 9.37491C7.26278 9.51366 7.31226 9.6768 7.31226 9.84367C7.31226 10.0674 7.22337 10.2821 7.06513 10.4403C6.9069 10.5985 6.69229 10.6874 6.46851 10.6874ZM11.531 10.6874C11.3641 10.6874 11.201 10.6379 11.0622 10.5452C10.9235 10.4525 10.8153 10.3207 10.7515 10.1666C10.6876 10.0124 10.6709 9.84274 10.7035 9.67907C10.736 9.51539 10.8164 9.36505 10.9344 9.24705C11.0524 9.12905 11.2027 9.04869 11.3664 9.01614C11.5301 8.98358 11.6997 9.00029 11.8539 9.06415C12.0081 9.12801 12.1399 9.23616 12.2326 9.37491C12.3253 9.51366 12.3748 9.6768 12.3748 9.84367C12.3748 10.0674 12.2859 10.2821 12.1276 10.4403C11.9694 10.5985 11.7548 10.6874 11.531 10.6874Z" fill="#7F8199"/>
</g>
<defs>
<clipPath id="clip0_70_2629">
<rect width="18" height="18" fill="white"/>
</clipPath>
</defs>
</svg>
