<svg width="25" height="24" viewBox="0 0 25 24" fill="none" xmlns="http://www.w3.org/2000/svg">
<g id="u:arrow-up-right">
<path id="Vector" d="M18.1675 6.62C18.066 6.37565 17.8718 6.18147 17.6275 6.08C17.5073 6.02876 17.3782 6.00158 17.2475 6H7.2475C6.98228 6 6.72793 6.10536 6.54039 6.29289C6.35285 6.48043 6.2475 6.73478 6.2475 7C6.2475 7.26522 6.35285 7.51957 6.54039 7.70711C6.72793 7.89464 6.98228 8 7.2475 8H14.8375L6.5375 16.29C6.44377 16.383 6.36938 16.4936 6.31861 16.6154C6.26784 16.7373 6.2417 16.868 6.2417 17C6.2417 17.132 6.26784 17.2627 6.31861 17.3846C6.36938 17.5064 6.44377 17.617 6.5375 17.71C6.63046 17.8037 6.74106 17.8781 6.86292 17.9289C6.98478 17.9797 7.11549 18.0058 7.2475 18.0058C7.37951 18.0058 7.51022 17.9797 7.63207 17.9289C7.75393 17.8781 7.86453 17.8037 7.9575 17.71L16.2475 9.41V17C16.2475 17.2652 16.3529 17.5196 16.5404 17.7071C16.7279 17.8946 16.9823 18 17.2475 18C17.5127 18 17.7671 17.8946 17.9546 17.7071C18.1421 17.5196 18.2475 17.2652 18.2475 17V7C18.2459 6.86932 18.2187 6.74022 18.1675 6.62V6.62Z" fill="#898E93"/>
</g>
</svg>
