<svg width="25" height="24" viewBox="0 0 25 24" fill="none" xmlns="http://www.w3.org/2000/svg">
<g id="u:arrow-down-left">
<path id="Vector" d="M17.2495 15.9999H9.65951L17.9595 7.70994C18.1478 7.52164 18.2536 7.26624 18.2536 6.99994C18.2536 6.73364 18.1478 6.47825 17.9595 6.28994C17.7712 6.10164 17.5158 5.99585 17.2495 5.99585C16.9832 5.99585 16.7278 6.10164 16.5395 6.28994L8.24951 14.5899V6.99994C8.24951 6.73472 8.14415 6.48037 7.95662 6.29283C7.76908 6.1053 7.51473 5.99994 7.24951 5.99994C6.9843 5.99994 6.72994 6.1053 6.54241 6.29283C6.35487 6.48037 6.24951 6.73472 6.24951 6.99994V16.9999C6.25109 17.1306 6.27827 17.2597 6.32951 17.3799C6.43099 17.6243 6.62516 17.8185 6.86951 17.9199C6.98973 17.9712 7.11883 17.9984 7.24951 17.9999H17.2495C17.5147 17.9999 17.7691 17.8946 17.9566 17.707C18.1442 17.5195 18.2495 17.2652 18.2495 16.9999C18.2495 16.7347 18.1442 16.4804 17.9566 16.2928C17.7691 16.1053 17.5147 15.9999 17.2495 15.9999Z" fill="#898E93"/>
</g>
</svg>
