<svg width="25" height="24" viewBox="0 0 25 24" fill="none" xmlns="http://www.w3.org/2000/svg">
<g id="u:coins">
<path id="Vector" d="M21.4695 12C21.9673 11.4524 22.2451 10.7401 22.2495 10C22.2495 9.20435 21.9334 8.44129 21.3708 7.87868C20.8082 7.31607 20.0452 7 19.2495 7H14.0695C14.2293 6.54818 14.2784 6.06466 14.2129 5.58993C14.1474 5.11519 13.9691 4.66306 13.693 4.27138C13.4169 3.8797 13.0509 3.55988 12.6258 3.33868C12.2007 3.11748 11.7287 3.00135 11.2495 3H5.24951C4.45386 3 3.6908 3.31607 3.12819 3.87868C2.56558 4.44129 2.24951 5.20435 2.24951 6C2.25392 6.74005 2.53172 7.45236 3.02951 8C2.53756 8.55002 2.26558 9.26207 2.26558 10C2.26558 10.7379 2.53756 11.45 3.02951 12C2.53756 12.55 2.26558 13.2621 2.26558 14C2.26558 14.7379 2.53756 15.45 3.02951 16C2.53172 16.5476 2.25392 17.2599 2.24951 18C2.24951 18.7956 2.56558 19.5587 3.12819 20.1213C3.6908 20.6839 4.45386 21 5.24951 21H19.2495C19.8273 20.9969 20.3918 20.8271 20.8754 20.5108C21.359 20.1946 21.7409 19.7455 21.9754 19.2174C22.2098 18.6894 22.2868 18.1049 22.1971 17.5341C22.1073 16.9633 21.8547 16.4306 21.4695 16C21.9615 15.45 22.2334 14.7379 22.2334 14C22.2334 13.2621 21.9615 12.55 21.4695 12ZM11.2495 19H5.24951C4.9843 19 4.72994 18.8946 4.54241 18.7071C4.35487 18.5196 4.24951 18.2652 4.24951 18C4.24951 17.7348 4.35487 17.4804 4.54241 17.2929C4.72994 17.1054 4.9843 17 5.24951 17H11.2495C11.5147 17 11.7691 17.1054 11.9566 17.2929C12.1442 17.4804 12.2495 17.7348 12.2495 18C12.2495 18.2652 12.1442 18.5196 11.9566 18.7071C11.7691 18.8946 11.5147 19 11.2495 19ZM11.2495 15H5.24951C4.9843 15 4.72994 14.8946 4.54241 14.7071C4.35487 14.5196 4.24951 14.2652 4.24951 14C4.24951 13.7348 4.35487 13.4804 4.54241 13.2929C4.72994 13.1054 4.9843 13 5.24951 13H11.2495C11.5147 13 11.7691 13.1054 11.9566 13.2929C12.1442 13.4804 12.2495 13.7348 12.2495 14C12.2495 14.2652 12.1442 14.5196 11.9566 14.7071C11.7691 14.8946 11.5147 15 11.2495 15ZM11.2495 11H5.24951C4.9843 11 4.72994 10.8946 4.54241 10.7071C4.35487 10.5196 4.24951 10.2652 4.24951 10C4.24951 9.73478 4.35487 9.48043 4.54241 9.29289C4.72994 9.10536 4.9843 9 5.24951 9H11.2495C11.5147 9 11.7691 9.10536 11.9566 9.29289C12.1442 9.48043 12.2495 9.73478 12.2495 10C12.2495 10.2652 12.1442 10.5196 11.9566 10.7071C11.7691 10.8946 11.5147 11 11.2495 11ZM11.2495 7H5.24951C4.9843 7 4.72994 6.89464 4.54241 6.70711C4.35487 6.51957 4.24951 6.26522 4.24951 6C4.24951 5.73478 4.35487 5.48043 4.54241 5.29289C4.72994 5.10536 4.9843 5 5.24951 5H11.2495C11.5147 5 11.7691 5.10536 11.9566 5.29289C12.1442 5.48043 12.2495 5.73478 12.2495 6C12.2495 6.26522 12.1442 6.51957 11.9566 6.70711C11.7691 6.89464 11.5147 7 11.2495 7ZM19.9395 18.71C19.8509 18.8035 19.7438 18.8776 19.625 18.9275C19.5062 18.9774 19.3783 19.0021 19.2495 19H14.0695C14.3093 18.3549 14.3093 17.6451 14.0695 17H19.2495C19.5147 17 19.7691 17.1054 19.9566 17.2929C20.1442 17.4804 20.2495 17.7348 20.2495 18C20.2477 18.133 20.2193 18.2643 20.1661 18.3862C20.1128 18.5082 20.0358 18.6182 19.9395 18.71V18.71ZM19.9395 14.71C19.8509 14.8035 19.7438 14.8776 19.625 14.9275C19.5062 14.9774 19.3783 15.0021 19.2495 15H14.0695C14.3093 14.3549 14.3093 13.6451 14.0695 13H19.2495C19.5147 13 19.7691 13.1054 19.9566 13.2929C20.1442 13.4804 20.2495 13.7348 20.2495 14C20.2477 14.133 20.2193 14.2643 20.1661 14.3862C20.1128 14.5082 20.0358 14.6182 19.9395 14.71V14.71ZM19.9395 10.71C19.8509 10.8035 19.7438 10.8776 19.625 10.9275C19.5062 10.9774 19.3783 11.0021 19.2495 11H14.0695C14.3093 10.3549 14.3093 9.6451 14.0695 9H19.2495C19.5147 9 19.7691 9.10536 19.9566 9.29289C20.1442 9.48043 20.2495 9.73478 20.2495 10C20.2477 10.133 20.2193 10.2643 20.1661 10.3862C20.1128 10.5082 20.0358 10.6182 19.9395 10.71V10.71Z" fill="#898E93"/>
</g>
</svg>
