<svg width="25" height="24" viewBox="0 0 25 24" fill="none" xmlns="http://www.w3.org/2000/svg">
<g id="u:image">
<path id="Vector" d="M19.2495 4H5.24951C4.45386 4 3.6908 4.31607 3.12819 4.87868C2.56558 5.44129 2.24951 6.20435 2.24951 7V17C2.24951 17.7956 2.56558 18.5587 3.12819 19.1213C3.6908 19.6839 4.45386 20 5.24951 20H19.2495C20.0452 20 20.8082 19.6839 21.3708 19.1213C21.9334 18.5587 22.2495 17.7956 22.2495 17V7C22.2495 6.20435 21.9334 5.44129 21.3708 4.87868C20.8082 4.31607 20.0452 4 19.2495 4V4ZM5.24951 18C4.9843 18 4.72994 17.8946 4.54241 17.7071C4.35487 17.5196 4.24951 17.2652 4.24951 17V14.58L7.54951 11.29C7.73644 11.1068 7.98776 11.0041 8.24951 11.0041C8.51126 11.0041 8.76258 11.1068 8.94951 11.29L15.6595 18H5.24951ZM20.2495 17C20.2495 17.2652 20.1442 17.5196 19.9566 17.7071C19.7691 17.8946 19.5147 18 19.2495 18H18.4795L14.6695 14.17L15.5495 13.29C15.7364 13.1068 15.9878 13.0041 16.2495 13.0041C16.5113 13.0041 16.7626 13.1068 16.9495 13.29L20.2495 16.58V17ZM20.2495 13.76L18.3695 11.89C17.7996 11.3424 17.0399 11.0366 16.2495 11.0366C15.4592 11.0366 14.6995 11.3424 14.1295 11.89L13.2495 12.77L10.3695 9.89C9.79957 9.34243 9.03987 9.03663 8.24951 9.03663C7.45916 9.03663 6.69945 9.34243 6.12951 9.89L4.24951 11.76V7C4.24951 6.73478 4.35487 6.48043 4.54241 6.29289C4.72994 6.10536 4.9843 6 5.24951 6H19.2495C19.5147 6 19.7691 6.10536 19.9566 6.29289C20.1442 6.48043 20.2495 6.73478 20.2495 7V13.76Z" fill="#898E93"/>
</g>
</svg>
